<svg width="188" height="188" viewBox="0 0 188 188" fill="none" xmlns="http://www.w3.org/2000/svg">
<g clip-path="url(#clip0_63_4)">
<path d="M112.254 125.444C115.78 128.732 118.545 128.354 121.958 126.371C126.592 124.134 130.134 121.83 131.501 115.663C133.386 108.211 144.772 104.965 149.127 110.827C152.265 115.078 154.885 120.613 156.542 125.76C158.836 133.03 149.624 140.139 142.369 136.841C136.912 134.64 133.116 135.722 128.353 138.28C119.855 142.692 111.358 147.103 102.669 151.064C99.9665 152.214 98.5477 153.881 98.0246 157.029C96.5281 163.518 92.919 166.914 87.1973 167.22C81.7966 167.655 77.6283 164.108 77.064 159.028C76.8103 157.806 76.686 156.263 75.8524 155.553C72.0673 152.907 70.8557 149.433 72.668 144.938C74.3509 140.765 79.0526 137.436 83.4228 137.705C84.5154 137.772 85.608 137.84 86.5711 138.228C93.3076 142.811 98.5271 138.197 103.871 135.126C105.352 134.231 105.745 131.404 106.91 128.514C101.955 130.622 99.1279 130.228 96.9532 126.365C96.57 125.464 93.9344 125.521 92.2619 125.966C82.2268 128.638 72.0623 131.631 62.1568 133.982C58.4907 134.743 54.4415 134.603 50.3923 134.463C40.4298 134.178 32.9838 130.429 29.0901 120.648C26.7289 114.47 23.7879 108.806 20.3964 103.332C15.9175 95.9278 16.7719 89.1809 20.7125 82.1854C26.0097 72.7511 33.9373 65.124 42.4397 58.8483C62.9863 43.9928 85.2571 33.1917 110.593 29.5984C113.679 29.3499 116.765 29.1014 120.043 29.3034C130.777 29.5262 139.124 32.892 143.272 43.8954C145.633 50.0728 149.216 55.9965 152.348 62.1118C155.419 67.4555 155.082 72.9183 152.69 77.9254C147.709 89.3533 138.88 97.3636 129.218 104.664C125.417 107.611 120.974 110.298 117.173 113.244C116.143 113.949 114.916 116.066 115.299 116.967C117.474 120.83 116.117 123.269 112.254 125.444ZM103.178 60.9461C102.986 60.4956 103.116 60.1746 102.924 59.7241C103.825 59.3409 104.856 58.6367 106.078 58.383C115.595 56.9954 125.433 55.7373 134.95 54.3497C136.172 54.096 137.715 53.9717 138.425 53.1381C143.328 46.531 140.527 36.817 132.693 34.0311C128.069 32.5398 122.865 31.5611 117.594 31.6749C101.91 31.6954 87.2402 36.604 73.0161 43.1851C55.5091 51.4283 39.4106 61.7324 27.154 77.3181C24.1869 80.9738 21.9241 85.6599 20.4328 90.2838C17.9679 98.2476 23.4099 106.041 31.8294 106.45C32.922 106.517 34.4029 105.621 35.1123 104.788C50.6 83.0401 73.197 70.5044 97.4562 61.2515C98.3572 60.8684 98.9993 61.1273 100.221 60.8736C75.3148 71.7316 52.0757 84.0084 35.7492 106.911C65.4968 111.815 124.076 81.3167 135.587 56.4727C124.599 55.0279 113.855 58.5333 103.178 60.9461ZM24.5646 106.879C26.9931 111.964 29.3594 116.278 31.2752 120.783C34.3405 127.99 40.0518 131.413 47.6997 131.884C52.8415 132.092 57.9833 132.299 62.7419 131.605C82.4184 129.089 100.117 121.296 116.858 111.251C128.255 104.276 138.626 96.1416 146.435 85.1073C155.403 73.0478 153.643 58.9014 143.256 49.4876C138.803 55.9031 134.412 63.0902 128.995 69.1173C116.874 82.5179 101.484 91.9883 84.8162 99.0769C66.0251 106.802 46.5297 113.497 24.5646 106.879ZM79.71 155.243C78.7934 161.218 79.6219 163.792 83.6038 165.024C87.5856 166.257 92.2821 164.791 94.6071 160.877C95.446 159.722 95.9638 158.438 96.1606 157.024C96.6214 153.104 99.0707 150.733 102.804 148.879C111.622 144.597 119.99 140.507 128.487 136.095C133.251 133.537 137.368 132.584 142.375 134.977C147.061 137.24 152.275 134.49 154.408 130.125C155.962 126.273 154.491 123.44 148.972 120.468C149.883 116.357 149.893 112.629 145.399 110.816C141.547 109.263 136.4 110.92 134.525 114.643C133.686 115.797 133.039 117.402 132.842 118.816C132.381 122.736 130.061 124.786 126.779 126.448C118.54 130.218 110.494 134.438 102.447 138.658C97.1031 141.728 92.1478 143.836 85.6649 140.475C81.6209 138.471 76.2771 141.542 74.5942 145.715C72.9113 149.889 74.5113 152.4 79.71 155.243ZM98.4393 123.605C100.226 128.431 102.281 128.887 105.632 126.132C106.791 125.107 108.272 124.211 109.815 124.087C114.382 122.943 115.289 120.695 111.892 117.086C107.708 119.132 103.203 121.047 98.4393 123.605Z" fill="white"/>
<path d="M95.9283 102.065C99.2733 101.174 101.779 101.438 103.442 104.721C105.104 108.004 104.068 110.572 101.106 112.364C98.1444 114.155 94.613 112.731 93.2719 109.578C91.9308 106.425 93.2875 103.986 95.9283 102.065ZM102.991 104.913C100.164 104.519 97.9166 103.613 96.8862 104.317C95.8558 105.021 94.6907 107.911 95.3949 108.941C96.0991 109.972 98.6674 111.007 99.8894 110.754C101.241 110.179 101.826 107.802 102.991 104.913Z" fill="white"/>
<path d="M72.4717 123.211C69.3183 124.553 66.429 123.387 64.9584 120.555C63.6174 117.402 64.332 114.704 67.6149 113.042C70.4473 111.571 74.4291 112.804 75.5786 115.507C76.4692 118.852 75.7546 121.549 72.4717 123.211ZM67.8064 113.492C67.4129 116.319 66.1857 118.437 67.2109 119.597C67.9151 120.628 70.8044 121.793 71.8349 121.088C72.8653 120.384 73.9009 117.816 73.3262 116.465C72.622 115.434 70.5663 114.978 67.8064 113.492Z" fill="white"/>
<path d="M127.313 96.431C124.289 97.451 121.591 96.7364 120.25 93.583C118.909 90.4296 119.753 87.4108 122.906 86.0697C125.739 84.5992 128.757 85.4432 130.549 88.4051C131.698 91.108 130.466 95.0899 127.313 96.431ZM127.121 95.9805C127.515 93.1533 128.742 91.0355 128.167 89.684C127.463 88.6536 124.957 88.3895 123.351 87.7422C122.704 89.3474 121.156 91.3357 121.731 92.6872C122.435 93.7176 124.812 94.3028 127.121 95.9805Z" fill="white"/>
</g>
<defs>
<clipPath id="clip0_63_4">
<rect width="144" height="144" fill="white" transform="translate(0 133.551) rotate(-68.0388)"/>
</clipPath>
</defs>
</svg>
