<svg width="40" height="26" viewBox="0 0 40 26" fill="none" xmlns="http://www.w3.org/2000/svg">
<path d="M6.41509 10.7714C2.13836 10.7714 0 8.95556 0 5.32381C0 3.83809 0.419287 2.68254 1.25786 1.85714C2.18029 0.949207 3.01887 0.412699 3.77359 0.247616C4.5283 0.0825393 5.19916 0 5.78616 0C8.97275 0 11.6981 0.990475 13.9623 2.97143C16.2264 4.86984 17.3585 7.46984 17.3585 10.7714C17.3585 17.7048 12.1593 22.781 1.76101 26V22.5333C3.85744 22.2857 5.99581 21.1714 8.1761 19.1905C10.4403 17.127 11.5723 14.8159 11.5723 12.2571C11.5723 10.7714 11.4885 9.90476 11.3208 9.65714C11.2369 9.32698 10.9015 9.1619 10.3145 9.1619C10.0629 9.1619 9.55975 9.45079 8.80503 10.0286C8.13417 10.5238 7.33753 10.7714 6.41509 10.7714ZM29.0566 10.7714C24.7799 10.7714 22.6415 8.95556 22.6415 5.32381C22.6415 3.83809 23.0608 2.68254 23.8994 1.85714C24.8218 0.949207 25.6604 0.412699 26.4151 0.247616C27.1698 0.0825393 27.8407 0 28.4277 0C31.6143 0 34.3396 0.990475 36.6038 2.97143C38.8679 4.86984 40 7.46984 40 10.7714C40 17.7048 34.8008 22.781 24.4025 26V22.5333C26.499 22.2857 28.6373 21.1714 30.8176 19.1905C33.0818 17.127 34.2138 14.8159 34.2138 12.2571C34.2138 10.7714 34.13 9.90476 33.9623 9.65714C33.8784 9.32698 33.543 9.1619 32.956 9.1619C32.7044 9.1619 32.2013 9.45079 31.4465 10.0286C30.7757 10.5238 29.979 10.7714 29.0566 10.7714Z" fill="#BDA697"/>
</svg>
